<svg width="20" height="24" viewBox="0 0 20 24" fill="none" xmlns="http://www.w3.org/2000/svg">
<path fill-rule="evenodd" clip-rule="evenodd" d="M8.80216 3.76801C8.56882 4.94984 8.17682 6.72318 6.74182 8.15818C6.61116 8.28884 6.46766 8.42651 6.31599 8.57351C4.98366 9.85801 3.00033 11.7713 3.00033 14.9167C3.00033 16.6235 3.73532 18.2417 4.86816 19.4375C6.00799 20.6403 7.46749 21.3333 8.83366 21.3333H14.667C15.0777 21.3333 15.4207 21.2283 15.6237 21.0918C15.7928 20.9798 15.8337 20.8818 15.8337 20.75C15.8337 20.6193 15.7928 20.5202 15.6237 20.4082C15.4207 20.2728 15.0777 20.1667 14.667 20.1667H13.5003C13.1909 20.1667 12.8942 20.0438 12.6754 19.825C12.4566 19.6062 12.3337 19.3094 12.3337 19C12.3337 18.6906 12.4566 18.3938 12.6754 18.1751C12.8942 17.9563 13.1909 17.8333 13.5003 17.8333H15.2503C15.661 17.8333 16.004 17.7283 16.207 17.5918C16.3762 17.4798 16.417 17.3818 16.417 17.25C16.417 17.1193 16.3762 17.0202 16.207 16.9082C16.004 16.7728 15.661 16.6667 15.2503 16.6667H14.0837C13.7742 16.6667 13.4775 16.5438 13.2587 16.325C13.0399 16.1062 12.917 15.8094 12.917 15.5C12.917 15.1906 13.0399 14.8938 13.2587 14.6751C13.4775 14.4563 13.7742 14.3333 14.0837 14.3333H15.8337C16.2443 14.3333 16.5873 14.2283 16.7903 14.0918C16.9595 13.9798 17.0003 13.8818 17.0003 13.75C17.0003 13.6193 16.9595 13.5202 16.7903 13.4082C16.5873 13.2728 16.2443 13.1667 15.8337 13.1667H14.667C14.3576 13.1667 14.0608 13.0438 13.842 12.825C13.6232 12.6062 13.5003 12.3094 13.5003 12C13.5003 11.6906 13.6232 11.3938 13.842 11.1751C14.0608 10.9563 14.3576 10.8333 14.667 10.8333H15.8337C16.2443 10.8333 16.5873 10.7283 16.7903 10.5918C16.9595 10.4798 17.0003 10.3818 17.0003 10.25C17.0003 10.1193 16.9595 10.0202 16.7903 9.90818C16.5873 9.77284 16.2443 9.66668 15.8337 9.66668H10.5837C10.3982 9.66673 10.2153 9.62255 10.0503 9.5378C9.88535 9.45306 9.74294 9.3302 9.63492 9.17941C9.5269 9.02862 9.4564 8.85425 9.42925 8.67076C9.4021 8.48727 9.4191 8.29995 9.47882 8.12434V8.12318L9.48349 8.11151L9.49866 8.06484L9.56049 7.86651C9.61182 7.69151 9.68299 7.43834 9.75649 7.13384C9.9339 6.4202 10.0425 5.6912 10.0808 4.95684C10.1112 4.15768 10.005 3.54518 9.79149 3.17184C9.66549 2.95018 9.47532 2.75068 9.03316 2.68768C8.97716 2.87901 8.92583 3.14034 8.85116 3.52301L8.80216 3.76801ZM12.1038 7.33334C12.2462 6.68234 12.3815 5.87151 12.413 5.04318C12.448 4.09234 12.3547 2.95484 11.818 2.01568C11.223 0.970343 10.1707 0.333344 8.71699 0.333344C8.27132 0.333344 7.85366 0.480344 7.51532 0.776677C7.20849 1.04501 7.03349 1.37868 6.92499 1.64701C6.75233 2.07518 6.64499 2.63051 6.55516 3.09951L6.51316 3.31534C6.28682 4.46684 5.99049 5.61018 5.09216 6.50851C4.98949 6.61118 4.86466 6.73018 4.72232 6.86434C3.41216 8.10568 0.666992 10.7085 0.666992 14.9167C0.666992 17.2932 1.68199 19.4667 3.17416 21.0417C4.65933 22.6097 6.69982 23.6667 8.83366 23.6667H14.667C15.423 23.6667 16.2467 23.48 16.9187 23.0332C17.6245 22.5618 18.167 21.7848 18.167 20.75C18.167 20.2028 18.0153 19.7292 17.7703 19.3325C18.3408 18.8542 18.7503 18.1507 18.7503 17.25C18.7503 16.7028 18.5987 16.228 18.3537 15.8337C18.9242 15.3553 19.3337 14.6507 19.3337 13.75C19.3337 13.0395 19.0793 12.4515 18.6908 12C19.0782 11.5485 19.3337 10.9605 19.3337 10.25C19.3337 9.21401 18.7912 8.43818 18.0853 7.96684C17.4133 7.51884 16.5897 7.33334 15.8337 7.33334H12.1038Z" fill="#36B972"/>
</svg>
